<mxfile host="app.diagrams.net" modified="2020-10-10T03:13:35.538Z" agent="5.0 (Macintosh; Intel Mac OS X 10_15_7) AppleWebKit/537.36 (KHTML, like Gecko) Chrome/85.0.4183.121 Safari/537.36" etag="u9XmG5A98uLZ0m20am0U" version="13.7.9" type="github" pages="2">
  <diagram id="iJopjJLGoKhtdu1_EaH7" name="用例需求">
    <mxGraphModel dx="946" dy="591" grid="1" gridSize="10" guides="1" tooltips="1" connect="1" arrows="1" fold="1" page="1" pageScale="1" pageWidth="827" pageHeight="1169" math="0" shadow="0">
      <root>
        <mxCell id="0" />
        <mxCell id="1" parent="0" />
        <mxCell id="Lt6tCBGGhYSjwkNTVQfB-4" style="rounded=0;orthogonalLoop=1;jettySize=auto;html=1;" edge="1" parent="1" source="Lt6tCBGGhYSjwkNTVQfB-1" target="Lt6tCBGGhYSjwkNTVQfB-5">
          <mxGeometry relative="1" as="geometry">
            <mxPoint x="210" y="230" as="targetPoint" />
          </mxGeometry>
        </mxCell>
        <mxCell id="Lt6tCBGGhYSjwkNTVQfB-1" value="convert" style="shape=umlActor;verticalLabelPosition=bottom;verticalAlign=top;html=1;" vertex="1" parent="1">
          <mxGeometry x="100" y="260" width="30" height="60" as="geometry" />
        </mxCell>
        <mxCell id="Lt6tCBGGhYSjwkNTVQfB-5" value="上传配置文件" style="ellipse;whiteSpace=wrap;html=1;" vertex="1" parent="1">
          <mxGeometry x="220" y="190" width="120" height="70" as="geometry" />
        </mxCell>
      </root>
    </mxGraphModel>
  </diagram>
  <diagram id="9jAZl0UPL6epSxZ0vfkU" name="Page-2">
    <mxGraphModel dx="946" dy="591" grid="1" gridSize="10" guides="1" tooltips="1" connect="1" arrows="1" fold="1" page="1" pageScale="1" pageWidth="827" pageHeight="1169" math="0" shadow="0">
      <root>
        <mxCell id="9XU6a--dowMDHeTSq27X-0" />
        <mxCell id="9XU6a--dowMDHeTSq27X-1" parent="9XU6a--dowMDHeTSq27X-0" />
        <mxCell id="9XU6a--dowMDHeTSq27X-2" value="Thread 1" style="swimlane;whiteSpace=wrap" vertex="1" parent="9XU6a--dowMDHeTSq27X-1">
          <mxGeometry x="20" y="20" width="280" height="570" as="geometry" />
        </mxCell>
        <mxCell id="9XU6a--dowMDHeTSq27X-3" value="" style="ellipse;shape=startState;fillColor=#000000;strokeColor=#ff0000;" vertex="1" parent="9XU6a--dowMDHeTSq27X-2">
          <mxGeometry x="100" y="40" width="30" height="30" as="geometry" />
        </mxCell>
        <mxCell id="9XU6a--dowMDHeTSq27X-4" value="" style="edgeStyle=elbowEdgeStyle;elbow=horizontal;verticalAlign=bottom;endArrow=open;endSize=8;strokeColor=#FF0000;endFill=1;rounded=0" edge="1" parent="9XU6a--dowMDHeTSq27X-2" source="9XU6a--dowMDHeTSq27X-3" target="9XU6a--dowMDHeTSq27X-5">
          <mxGeometry x="100" y="40" as="geometry">
            <mxPoint x="115" y="110" as="targetPoint" />
          </mxGeometry>
        </mxCell>
        <mxCell id="9XU6a--dowMDHeTSq27X-5" value="idle" style="" vertex="1" parent="9XU6a--dowMDHeTSq27X-2">
          <mxGeometry x="60" y="110" width="110" height="50" as="geometry" />
        </mxCell>
        <mxCell id="9XU6a--dowMDHeTSq27X-6" value="user action" style="" vertex="1" parent="9XU6a--dowMDHeTSq27X-2">
          <mxGeometry x="60" y="220" width="110" height="50" as="geometry" />
        </mxCell>
        <mxCell id="9XU6a--dowMDHeTSq27X-7" value="" style="endArrow=open;strokeColor=#FF0000;endFill=1;rounded=0" edge="1" parent="9XU6a--dowMDHeTSq27X-2" source="9XU6a--dowMDHeTSq27X-5" target="9XU6a--dowMDHeTSq27X-6">
          <mxGeometry relative="1" as="geometry" />
        </mxCell>
        <mxCell id="9XU6a--dowMDHeTSq27X-8" value="post command" style="" vertex="1" parent="9XU6a--dowMDHeTSq27X-2">
          <mxGeometry x="60" y="325" width="110" height="50" as="geometry" />
        </mxCell>
        <mxCell id="9XU6a--dowMDHeTSq27X-9" value="" style="endArrow=open;strokeColor=#FF0000;endFill=1;rounded=0" edge="1" parent="9XU6a--dowMDHeTSq27X-2" source="9XU6a--dowMDHeTSq27X-6" target="9XU6a--dowMDHeTSq27X-8">
          <mxGeometry relative="1" as="geometry" />
        </mxCell>
        <mxCell id="9XU6a--dowMDHeTSq27X-10" value="" style="edgeStyle=elbowEdgeStyle;elbow=horizontal;strokeColor=#FF0000;endArrow=open;endFill=1;rounded=0" edge="1" parent="9XU6a--dowMDHeTSq27X-2" source="9XU6a--dowMDHeTSq27X-8" target="9XU6a--dowMDHeTSq27X-5">
          <mxGeometry width="100" height="100" relative="1" as="geometry">
            <mxPoint x="160" y="290" as="sourcePoint" />
            <mxPoint x="260" y="190" as="targetPoint" />
            <Array as="points">
              <mxPoint x="30" y="250" />
            </Array>
          </mxGeometry>
        </mxCell>
        <mxCell id="9XU6a--dowMDHeTSq27X-11" value="Thread 2" style="swimlane;whiteSpace=wrap" vertex="1" parent="9XU6a--dowMDHeTSq27X-1">
          <mxGeometry x="300" y="20" width="280" height="570" as="geometry" />
        </mxCell>
        <mxCell id="9XU6a--dowMDHeTSq27X-12" value="" style="ellipse;shape=startState;fillColor=#000000;strokeColor=#ff0000;" vertex="1" parent="9XU6a--dowMDHeTSq27X-11">
          <mxGeometry x="60" y="40" width="30" height="30" as="geometry" />
        </mxCell>
        <mxCell id="9XU6a--dowMDHeTSq27X-13" value="" style="edgeStyle=elbowEdgeStyle;elbow=horizontal;verticalAlign=bottom;endArrow=open;endSize=8;strokeColor=#FF0000;endFill=1;rounded=0" edge="1" parent="9XU6a--dowMDHeTSq27X-11" source="9XU6a--dowMDHeTSq27X-12" target="9XU6a--dowMDHeTSq27X-14">
          <mxGeometry x="40" y="20" as="geometry">
            <mxPoint x="55" y="90" as="targetPoint" />
          </mxGeometry>
        </mxCell>
        <mxCell id="9XU6a--dowMDHeTSq27X-14" value="idle" style="" vertex="1" parent="9XU6a--dowMDHeTSq27X-11">
          <mxGeometry x="20" y="110" width="110" height="50" as="geometry" />
        </mxCell>
        <mxCell id="9XU6a--dowMDHeTSq27X-15" value="check for &#xa;new commands" style="" vertex="1" parent="9XU6a--dowMDHeTSq27X-11">
          <mxGeometry x="20" y="220" width="110" height="50" as="geometry" />
        </mxCell>
        <mxCell id="9XU6a--dowMDHeTSq27X-16" value="" style="endArrow=open;strokeColor=#FF0000;endFill=1;rounded=0" edge="1" parent="9XU6a--dowMDHeTSq27X-11" source="9XU6a--dowMDHeTSq27X-14" target="9XU6a--dowMDHeTSq27X-15">
          <mxGeometry relative="1" as="geometry" />
        </mxCell>
        <mxCell id="9XU6a--dowMDHeTSq27X-17" value="command queue" style="" vertex="1" parent="9XU6a--dowMDHeTSq27X-11">
          <mxGeometry x="20" y="325" width="110" height="50" as="geometry" />
        </mxCell>
        <mxCell id="9XU6a--dowMDHeTSq27X-18" value="" style="endArrow=open;strokeColor=#FF0000;endFill=1;rounded=0" edge="1" parent="9XU6a--dowMDHeTSq27X-11" source="9XU6a--dowMDHeTSq27X-15" target="9XU6a--dowMDHeTSq27X-17">
          <mxGeometry relative="1" as="geometry" />
        </mxCell>
        <mxCell id="9XU6a--dowMDHeTSq27X-19" value="queue empty" style="rhombus;fillColor=#ffffc0;strokeColor=#ff0000;" vertex="1" parent="9XU6a--dowMDHeTSq27X-11">
          <mxGeometry x="150" y="225" width="80" height="40" as="geometry" />
        </mxCell>
        <mxCell id="9XU6a--dowMDHeTSq27X-20" value="yes" style="edgeStyle=elbowEdgeStyle;elbow=horizontal;align=left;verticalAlign=bottom;endArrow=open;endSize=8;strokeColor=#FF0000;exitX=0.5;exitY=0;endFill=1;rounded=0;entryX=0.75;entryY=0.5;entryPerimeter=0" edge="1" parent="9XU6a--dowMDHeTSq27X-11" source="9XU6a--dowMDHeTSq27X-19" target="9XU6a--dowMDHeTSq27X-23">
          <mxGeometry x="-1" relative="1" as="geometry">
            <mxPoint x="160" y="150" as="targetPoint" />
            <Array as="points">
              <mxPoint x="190" y="180" />
            </Array>
          </mxGeometry>
        </mxCell>
        <mxCell id="9XU6a--dowMDHeTSq27X-21" value="no" style="edgeStyle=elbowEdgeStyle;elbow=horizontal;align=left;verticalAlign=top;endArrow=open;endSize=8;strokeColor=#FF0000;endFill=1;rounded=0" edge="1" parent="9XU6a--dowMDHeTSq27X-11" source="9XU6a--dowMDHeTSq27X-19" target="9XU6a--dowMDHeTSq27X-25">
          <mxGeometry x="-1" relative="1" as="geometry">
            <mxPoint x="190" y="305" as="targetPoint" />
          </mxGeometry>
        </mxCell>
        <mxCell id="9XU6a--dowMDHeTSq27X-22" value="" style="endArrow=open;strokeColor=#FF0000;endFill=1;rounded=0" edge="1" parent="9XU6a--dowMDHeTSq27X-11" source="9XU6a--dowMDHeTSq27X-15" target="9XU6a--dowMDHeTSq27X-19">
          <mxGeometry relative="1" as="geometry" />
        </mxCell>
        <mxCell id="9XU6a--dowMDHeTSq27X-23" value="" style="shape=line;strokeWidth=6;strokeColor=#ff0000;rotation=90" vertex="1" parent="9XU6a--dowMDHeTSq27X-11">
          <mxGeometry x="130" y="127.5" width="50" height="15" as="geometry" />
        </mxCell>
        <mxCell id="9XU6a--dowMDHeTSq27X-24" value="" style="edgeStyle=elbowEdgeStyle;elbow=horizontal;verticalAlign=bottom;endArrow=open;endSize=8;strokeColor=#FF0000;endFill=1;rounded=0" edge="1" parent="9XU6a--dowMDHeTSq27X-11" source="9XU6a--dowMDHeTSq27X-23" target="9XU6a--dowMDHeTSq27X-14">
          <mxGeometry x="130" y="90" as="geometry">
            <mxPoint x="230" y="140" as="targetPoint" />
          </mxGeometry>
        </mxCell>
        <mxCell id="9XU6a--dowMDHeTSq27X-25" value="dispatch&#xa;command&#xa;worker thread" style="" vertex="1" parent="9XU6a--dowMDHeTSq27X-11">
          <mxGeometry x="140" y="325" width="110" height="50" as="geometry" />
        </mxCell>
        <mxCell id="9XU6a--dowMDHeTSq27X-26" value="critical&#xa;section" style="shape=note;whiteSpace=wrap;size=17" vertex="1" parent="9XU6a--dowMDHeTSq27X-11">
          <mxGeometry x="105" y="490" width="100" height="50" as="geometry" />
        </mxCell>
        <mxCell id="9XU6a--dowMDHeTSq27X-27" value="" style="endArrow=none;strokeColor=#FF0000;endFill=0;rounded=0;dashed=1" edge="1" parent="9XU6a--dowMDHeTSq27X-11" source="9XU6a--dowMDHeTSq27X-17" target="9XU6a--dowMDHeTSq27X-26">
          <mxGeometry relative="1" as="geometry" />
        </mxCell>
        <mxCell id="9XU6a--dowMDHeTSq27X-28" value="" style="whiteSpace=wrap;strokeColor=#FF0000;fillColor=#FF0000" vertex="1" parent="9XU6a--dowMDHeTSq27X-11">
          <mxGeometry x="245" y="395" width="5" height="45" as="geometry" />
        </mxCell>
        <mxCell id="9XU6a--dowMDHeTSq27X-29" value="" style="edgeStyle=elbowEdgeStyle;elbow=horizontal;entryX=0;entryY=0.5;strokeColor=#FF0000;endArrow=open;endFill=1;rounded=0" edge="1" parent="9XU6a--dowMDHeTSq27X-11" source="9XU6a--dowMDHeTSq27X-25" target="9XU6a--dowMDHeTSq27X-28">
          <mxGeometry width="100" height="100" relative="1" as="geometry">
            <mxPoint x="60" y="480" as="sourcePoint" />
            <mxPoint x="160" y="380" as="targetPoint" />
            <Array as="points">
              <mxPoint x="195" y="400" />
            </Array>
          </mxGeometry>
        </mxCell>
        <mxCell id="9XU6a--dowMDHeTSq27X-30" value="Thread 3" style="swimlane;whiteSpace=wrap" vertex="1" parent="9XU6a--dowMDHeTSq27X-1">
          <mxGeometry x="580" y="20" width="280" height="570" as="geometry" />
        </mxCell>
        <mxCell id="9XU6a--dowMDHeTSq27X-31" value="process&#xa;command" style="" vertex="1" parent="9XU6a--dowMDHeTSq27X-30">
          <mxGeometry x="90" y="405" width="110" height="50" as="geometry" />
        </mxCell>
        <mxCell id="9XU6a--dowMDHeTSq27X-32" value="" style="edgeStyle=elbowEdgeStyle;elbow=horizontal;strokeColor=#FF0000;endArrow=open;endFill=1;rounded=0;entryX=0.25;entryY=0.5;entryPerimeter=0" edge="1" parent="9XU6a--dowMDHeTSq27X-30" target="9XU6a--dowMDHeTSq27X-23">
          <mxGeometry width="100" height="100" relative="1" as="geometry">
            <mxPoint x="-30" y="410" as="sourcePoint" />
            <mxPoint x="-120" y="120" as="targetPoint" />
            <Array as="points">
              <mxPoint x="-10" y="135" />
            </Array>
          </mxGeometry>
        </mxCell>
        <mxCell id="9XU6a--dowMDHeTSq27X-33" value="" style="edgeStyle=none;strokeColor=#FF0000;endArrow=open;endFill=1;rounded=0" edge="1" parent="9XU6a--dowMDHeTSq27X-30" target="9XU6a--dowMDHeTSq27X-31">
          <mxGeometry width="100" height="100" relative="1" as="geometry">
            <mxPoint x="-30" y="429.5" as="sourcePoint" />
            <mxPoint x="90" y="429.5" as="targetPoint" />
          </mxGeometry>
        </mxCell>
        <mxCell id="9XU6a--dowMDHeTSq27X-34" value="" style="ellipse;shape=endState;fillColor=#000000;strokeColor=#ff0000" vertex="1" parent="9XU6a--dowMDHeTSq27X-30">
          <mxGeometry x="130" y="500" width="30" height="30" as="geometry" />
        </mxCell>
        <mxCell id="9XU6a--dowMDHeTSq27X-35" value="" style="endArrow=open;strokeColor=#FF0000;endFill=1;rounded=0" edge="1" parent="9XU6a--dowMDHeTSq27X-30" source="9XU6a--dowMDHeTSq27X-31" target="9XU6a--dowMDHeTSq27X-34">
          <mxGeometry relative="1" as="geometry" />
        </mxCell>
        <mxCell id="9XU6a--dowMDHeTSq27X-36" value="" style="endArrow=open;strokeColor=#FF0000;endFill=1;rounded=0" edge="1" parent="9XU6a--dowMDHeTSq27X-1" source="9XU6a--dowMDHeTSq27X-8" target="9XU6a--dowMDHeTSq27X-17">
          <mxGeometry relative="1" as="geometry" />
        </mxCell>
      </root>
    </mxGraphModel>
  </diagram>
</mxfile>
